<?xml version="1.0" standalone="no"?>
<!DOCTYPE svg PUBLIC "-//W3C//DTD SVG 20010904//EN"
 "http://www.w3.org/TR/2001/REC-SVG-20010904/DTD/svg10.dtd">
<svg version="1.0" xmlns="http://www.w3.org/2000/svg"
 width="260.000000pt" height="260.000000pt" viewBox="0 0 260.000000 260.000000"
 preserveAspectRatio="xMidYMid meet">
<metadata>
Created by potrace 1.14, written by Peter Selinger 2001-2017
</metadata>
<g transform="translate(0.000000,260.000000) scale(0.100000,-0.100000)"
fill="#000000" stroke="none">
<path d="M1111 2589 c-153 -30 -332 -128 -417 -229 -12 -14 -34 -38 -49 -55
-14 -16 -47 -73 -73 -126 l-46 -95 -65 -17 c-212 -56 -368 -201 -437 -407 -20
-59 -25 -220 -10 -295 27 -133 124 -276 241 -354 53 -36 147 -76 215 -91 30
-7 61 -17 68 -23 8 -6 12 -5 12 4 0 8 6 5 15 -7 13 -16 14 -16 9 -1 -7 18 11
24 21 7 4 -6 12 -7 18 -3 15 10 38 10 54 0 6 -4 14 -3 18 3 9 15 25 2 18 -15
-4 -11 -1 -13 11 -9 9 3 14 10 11 14 -3 5 -1 11 4 14 5 4 12 2 15 -3 4 -5 1
-13 -5 -17 -8 -5 -8 -9 1 -14 9 -5 9 -9 1 -14 -6 -4 -11 -2 -11 3 0 6 -5 11
-11 11 -8 0 -8 -5 1 -15 7 -8 9 -15 5 -15 -5 0 0 -9 9 -19 12 -13 14 -21 6
-26 -6 -4 -9 -14 -6 -22 4 -9 2 -12 -7 -7 -8 5 -8 2 2 -9 11 -14 11 -18 -3
-23 -9 -3 -13 -10 -10 -16 4 -5 11 -5 18 1 9 8 13 7 13 -4 0 -8 -5 -11 -11 -8
-6 3 -8 3 -4 -2 4 -4 2 -15 -5 -23 -10 -13 -9 -15 3 -8 8 4 6 0 -4 -8 -19 -15
-12 -22 17 -17 4 0 7 -4 7 -10 0 -6 -9 -8 -22 -3 -20 6 -21 5 -9 -9 7 -9 18
-14 23 -11 6 4 5 -3 -1 -14 -8 -14 -8 -23 -1 -27 7 -4 8 -11 1 -18 -5 -7 -8
-27 -6 -44 1 -20 -1 -30 -7 -27 -6 4 -15 0 -20 -7 -8 -11 -9 -10 -4 4 3 10 2
15 -3 12 -5 -3 -13 -1 -16 5 -4 6 -14 1 -26 -12 -12 -13 -18 -18 -15 -11 4 6
2 14 -4 18 -10 6 -14 -17 -4 -27 8 -9 44 3 38 13 -3 5 -1 9 4 9 6 0 13 -8 16
-17 5 -12 10 -13 18 -5 7 7 17 8 27 2 15 -7 16 12 15 203 0 117 1 217 3 223 2
6 29 9 71 7 37 -2 101 -5 142 -6 41 -1 81 -6 88 -10 6 -5 12 -4 12 1 0 4 21 9
48 10 151 6 218 7 225 4 4 -2 2 -12 -4 -24 -6 -12 -7 -18 -1 -14 5 3 12 -1 16
-9 3 -8 0 -14 -6 -12 -8 1 -12 -17 -12 -55 -1 -49 2 -58 17 -58 9 0 17 5 17
11 0 5 -4 8 -9 5 -17 -11 -5 27 13 39 10 8 13 16 7 19 -5 3 -11 1 -13 -6 -3
-9 -6 -9 -12 0 -4 7 -2 12 5 12 7 0 4 7 -7 15 -17 14 -17 14 -1 9 14 -5 18 -2
15 12 -2 11 -7 22 -13 26 -6 5 -5 8 3 8 7 0 11 4 7 9 -3 6 3 8 15 6 11 -2 22
1 25 6 4 5 12 6 18 2 20 -13 68 -12 60 1 -5 8 -3 8 8 0 8 -6 30 -9 49 -7 19 2
73 5 120 6 l85 2 0 -141 c-1 -108 2 -141 12 -140 23 4 28 18 10 31 -16 11 -16
13 -2 19 9 3 14 10 10 15 -3 5 -1 12 5 16 14 9 12 25 -2 23 -7 -2 -12 3 -10
10 1 8 -1 11 -6 8 -5 -3 -9 1 -9 9 0 11 4 12 14 4 9 -9 13 -8 13 0 0 6 -7 14
-15 17 -14 6 -13 8 2 19 17 13 17 14 0 20 -11 5 -14 12 -9 19 10 13 10 27 0
42 -4 6 3 16 17 22 16 8 26 8 31 1 4 -6 11 -6 20 2 13 11 18 6 15 -16 -1 -5 6
-1 14 9 8 11 15 14 15 7 0 -7 5 -9 13 -4 6 4 30 8 52 9 129 3 286 74 389 177
115 114 170 251 169 418 -1 273 -193 504 -470 569 l-53 12 -39 84 c-96 203
-274 353 -491 410 -73 19 -260 27 -329 13z m-364 -1754 c0 -8 -4 -12 -9 -9 -5
3 -6 10 -3 15 9 13 12 11 12 -6z m608 -44 c3 -5 2 -12 -3 -15 -5 -3 -9 1 -9 9
0 17 3 19 12 6z m415 -82 c0 -5 -4 -9 -8 -9 -5 0 -9 7 -9 15 0 8 4 12 9 9 4
-3 8 -9 8 -15z"/>
<path d="M519 899 c-6 -16 -3 -87 3 -83 4 3 8 -2 8 -10 0 -9 -4 -16 -8 -16
-11 0 -9 -54 2 -57 4 -1 14 -10 21 -20 7 -10 17 -15 21 -10 4 4 2 7 -4 7 -7 0
-12 5 -12 12 0 6 3 9 6 5 4 -3 15 4 25 16 14 16 17 17 13 5 -3 -10 -2 -18 3
-18 5 0 9 9 10 20 2 25 -3 25 -34 0 -28 -22 -46 -18 -36 7 5 12 3 14 -7 8 -9
-5 -11 -4 -6 4 4 6 11 9 16 6 4 -2 7 8 6 24 0 16 -3 28 -7 26 -3 -2 -6 2 -6
10 0 8 5 15 11 15 6 0 3 5 -6 11 -10 5 -18 15 -18 22 0 8 3 7 9 -2 5 -8 14
-10 21 -6 9 6 11 4 5 -5 -6 -9 -4 -11 6 -5 11 6 12 5 2 -6 -21 -22 -15 -34 7
-14 18 16 25 14 21 -7 0 -5 4 -8 9 -8 6 0 10 5 10 11 0 6 9 8 23 4 15 -4 18
-3 8 3 -7 5 -9 12 -5 14 5 3 2 3 -6 1 -8 -2 -22 6 -32 19 -12 15 -16 17 -12 6
7 -21 -6 -24 -24 -6 -7 7 -12 8 -12 4 0 -5 -7 -3 -15 4 -8 7 -16 11 -16 9z"/>
<path d="M615 892 c-12 -12 -3 -22 17 -19 17 1 23 -3 23 -18 0 -11 -7 -20 -15
-20 -8 0 -21 -4 -27 -8 -17 -11 -35 1 -26 16 3 7 -3 4 -15 -6 -12 -11 -19 -27
-17 -39 3 -11 0 -30 -6 -40 -12 -22 0 -19 33 10 13 11 21 12 31 4 7 -6 17 -8
22 -4 14 10 18 42 5 42 -6 0 -8 -4 -5 -10 3 -5 1 -10 -5 -10 -17 0 -6 25 11
25 8 0 19 3 24 7 6 3 18 0 28 -7 10 -7 14 -16 8 -19 -5 -3 -12 0 -15 6 -3 7
-3 2 0 -11 5 -19 3 -23 -10 -18 -13 5 -15 3 -7 -12 6 -10 7 -21 4 -25 -3 -3
-1 -6 6 -6 8 0 11 7 6 18 -5 14 -4 15 7 4 11 -11 9 -17 -12 -33 -14 -12 -19
-18 -11 -14 19 10 33 -16 18 -34 -10 -12 -9 -13 3 -7 10 5 9 3 -2 -6 -15 -13
-15 -15 0 -26 15 -10 15 -11 -2 -5 -16 5 -18 3 -13 -11 5 -11 3 -15 -5 -10 -7
4 -8 3 -4 -4 11 -18 29 -14 22 3 -4 13 -2 14 14 5 11 -6 20 -13 20 -16 0 -3
-5 -2 -10 1 -6 4 -9 1 -8 -7 2 -8 -5 -12 -17 -10 -16 2 -17 1 -5 -7 8 -5 18
-7 22 -5 4 3 8 0 8 -6 0 -7 -9 -9 -22 -5 -22 5 -21 5 2 -10 14 -9 18 -14 9
-11 -9 2 -22 -1 -28 -7 -9 -9 -11 -8 -6 4 7 18 -20 46 -29 31 -3 -6 1 -12 9
-16 9 -3 12 -12 8 -22 -5 -14 -8 -13 -18 7 l-13 22 -7 -23 c-6 -18 -9 -20 -17
-9 -7 11 -8 9 -6 -6 2 -11 7 -23 12 -26 4 -4 3 -10 -3 -13 -6 -4 -11 -2 -11 4
0 6 -5 8 -12 4 -9 -5 -8 -2 1 9 12 16 11 17 -10 13 -13 -3 -26 -5 -29 -5 -3
-1 1 -5 9 -10 9 -6 10 -11 2 -15 -10 -6 -15 6 -12 26 0 4 -7 4 -16 1 -11 -4
-13 -8 -5 -11 7 -2 10 -8 6 -13 -6 -10 -1 -11 46 -11 49 0 52 1 45 21 -6 20 8
23 34 7 9 -6 12 -5 8 1 -8 12 17 25 27 15 4 -3 15 -7 25 -9 19 -3 22 11 8 33
-4 7 0 15 9 18 12 5 14 10 5 20 -6 7 -8 16 -4 19 3 4 -2 16 -13 28 -20 23 -20
23 1 56 12 18 12 23 0 33 -16 13 -9 43 9 33 7 -4 7 -1 -1 8 -10 13 -10 20 1
35 13 16 12 21 -1 37 -9 9 -12 17 -8 17 4 0 0 9 -9 19 -10 11 -15 25 -10 32 5
8 3 10 -5 5 -7 -5 -10 -14 -7 -22 3 -8 1 -14 -4 -14 -5 0 -10 8 -12 17 -3 15
-42 26 -53 15z m80 -44 c0 -3 8 -14 17 -24 14 -17 15 -22 3 -38 -8 -10 -12
-23 -8 -29 3 -6 1 -7 -6 -3 -9 6 -9 13 3 31 14 21 13 24 -4 40 -17 15 -22 16
-37 4 -16 -12 -17 -12 -6 2 7 9 11 18 8 21 -3 2 3 4 13 3 9 0 17 -4 17 -7z
m-108 -47 c1 -11 -3 -24 -10 -29 -10 -9 -12 -4 -11 21 1 18 2 34 3 36 2 10 15
-11 18 -28z m33 14 c-10 -12 -10 -18 1 -32 12 -17 12 -17 -6 -1 -15 14 -16 20
-5 32 7 9 15 16 17 16 3 0 0 -7 -7 -15z m91 -112 c13 -16 12 -17 -3 -4 -10 7
-18 15 -18 17 0 8 8 3 21 -13z"/>
<path d="M1409 895 c-1 -5 -1 -13 0 -17 0 -5 -3 -8 -9 -8 -5 0 -10 5 -10 12 0
15 -13 1 -16 -17 -1 -8 6 -13 17 -12 10 1 19 5 19 9 0 4 5 8 11 8 5 0 8 -4 5
-8 -2 -4 4 -8 14 -8 10 0 16 5 13 10 -4 5 -1 6 7 1 9 -6 11 -4 5 4 -6 10 -3
11 13 2 14 -7 23 -8 27 -1 3 5 12 10 18 10 8 0 8 -3 -2 -9 -9 -6 -10 -11 -2
-15 6 -4 11 -3 11 2 0 5 6 9 13 9 8 0 13 -11 11 -31 -1 -17 -2 -31 -3 -31 -1
0 -4 -13 -6 -30 -3 -23 -2 -26 6 -15 9 13 10 12 5 -2 -3 -10 -2 -18 3 -18 5 0
8 34 8 75 -1 41 -5 75 -9 75 -4 0 -8 -5 -8 -11 0 -6 -5 -7 -12 -2 -19 12 -82
11 -90 -2 -5 -6 -13 -2 -22 10 -9 11 -16 16 -17 10z"/>
<path d="M1784 892 c-12 -8 -13 -61 -1 -79 4 -6 3 -15 -3 -18 -8 -5 -7 -11 1
-21 9 -11 8 -18 -2 -31 -8 -10 -9 -14 -2 -10 17 11 27 -11 13 -28 -7 -8 -9
-15 -4 -15 4 0 3 -5 -4 -12 -8 -8 -9 -15 -1 -25 13 -15 -5 -43 -28 -43 -11 0
-11 -4 -3 -20 8 -14 8 -20 0 -20 -6 0 -8 -4 -5 -10 12 -19 24 -10 19 14 -2 14
0 27 6 31 5 3 7 0 4 -8 -3 -8 1 -14 10 -14 12 0 13 5 5 19 -9 17 -8 18 9 9 19
-10 32 -6 32 10 0 4 -9 6 -19 4 -14 -3 -18 1 -14 12 4 11 8 11 13 3 5 -8 10
-8 14 -2 3 5 -2 13 -11 16 -15 6 -15 8 -3 16 8 6 11 10 6 10 -5 0 -3 7 4 15 9
10 9 15 1 15 -6 0 -11 5 -11 10 0 6 6 9 13 8 6 -2 12 4 12 12 0 8 4 21 8 28 5
7 4 12 -2 12 -6 0 -11 -4 -11 -8 0 -5 -7 -9 -14 -9 -11 0 -13 5 -5 18 8 15 6
18 -8 13 -15 -5 -16 -4 -3 5 9 6 10 11 3 11 -13 0 -12 18 1 39 7 11 5 13 -6 9
-8 -4 -15 -1 -15 7 0 7 6 11 14 8 7 -3 13 0 13 5 0 15 -14 22 -26 14z m46
-152 c0 -10 -27 -7 -37 5 -4 4 -2 5 5 1 6 -4 12 -2 12 4 0 6 5 8 10 5 6 -3 10
-10 10 -15z m-33 -75 c0 -8 -4 -12 -9 -9 -5 3 -6 10 -3 15 9 13 12 11 12 -6z"/>
<path d="M1820 880 c-6 -11 -8 -20 -4 -20 3 0 2 -6 -4 -13 -9 -10 -8 -19 3
-34 8 -11 11 -23 7 -27 -3 -4 1 -4 10 -1 18 7 34 -10 18 -20 -6 -4 -8 -11 -4
-16 3 -5 0 -16 -6 -24 -7 -8 -9 -15 -5 -15 4 0 3 -6 -2 -12 -8 -11 -10 -33 -3
-40 16 -21 -2 -74 -21 -62 -5 3 -6 -2 -3 -11 5 -12 2 -16 -12 -13 -12 2 -18
-2 -16 -10 1 -8 -7 -16 -19 -19 -15 -4 -17 -8 -8 -14 7 -4 22 -3 32 3 14 7 17
7 13 -1 -15 -23 3 -10 19 15 9 15 11 23 4 19 -7 -5 -10 -4 -5 3 4 6 14 8 24 5
15 -6 16 -5 2 13 -14 17 -14 18 2 6 12 -10 18 -10 24 -1 5 8 3 9 -7 4 -11 -7
-11 -5 1 10 9 11 10 16 3 11 -8 -4 -13 -2 -13 4 0 7 7 10 15 6 8 -3 22 -3 30
0 12 5 13 10 4 20 -6 8 -16 14 -21 14 -6 0 -5 -7 2 -15 9 -10 9 -15 1 -15 -6
0 -11 5 -11 11 0 5 -4 8 -9 4 -5 -3 -13 0 -17 6 -4 7 -3 9 4 5 6 -3 14 -1 18
5 5 8 3 9 -7 4 -12 -7 -12 -6 -1 7 9 11 10 18 2 23 -7 4 -7 12 0 24 5 10 7 21
4 23 -2 3 2 11 11 18 12 10 15 10 15 0 0 -8 3 -10 6 -7 4 3 15 2 25 -3 12 -7
16 -18 13 -35 -2 -14 -1 -25 3 -24 29 5 36 -2 17 -17 -10 -8 -14 -13 -7 -10 7
4 9 -1 6 -14 -3 -11 -10 -20 -15 -20 -5 0 -7 -4 -3 -10 3 -5 13 -7 23 -4 14 5
15 4 2 -5 -8 -5 -11 -13 -7 -18 9 -8 28 17 21 28 -2 4 0 10 6 14 6 4 7 12 3
18 -12 18 -10 127 2 127 7 0 7 3 0 8 -12 8 -13 32 -2 49 4 6 3 14 -2 17 -5 3
-7 14 -4 24 4 15 -2 17 -44 16 -26 -1 -49 -3 -50 -4 -2 -1 -7 -3 -12 -4 -5 0
-13 -4 -17 -8 -13 -14 -26 -9 -20 7 8 22 -1 18 -14 -5z m123 -4 c-4 -6 1 -7
13 -2 10 4 15 4 11 0 -4 -4 -2 -13 4 -20 8 -9 5 -15 -9 -23 -11 -6 -22 -7 -26
-4 -4 4 -5 -3 -3 -15 4 -27 17 -41 17 -19 0 9 4 18 9 21 15 10 7 -28 -9 -41
-13 -12 -13 -14 0 -26 17 -13 24 -37 12 -37 -4 0 -13 14 -20 30 -8 17 -17 28
-21 26 -4 -3 -13 -1 -21 4 -10 6 -21 3 -34 -8 -18 -16 -18 -16 -5 6 8 12 19
22 26 22 7 0 13 4 13 9 0 12 -33 9 -42 -4 -5 -6 -8 -5 -8 3 0 7 -4 11 -9 7 -5
-3 -13 0 -17 6 -4 7 -3 9 4 5 6 -3 13 -2 17 4 6 9 -8 15 -29 11 -5 -1 -4 4 2
12 7 8 8 18 4 23 -4 4 0 3 9 -4 14 -10 18 -10 23 3 3 9 10 14 15 10 5 -3 12
-2 15 3 3 5 18 8 35 8 17 0 27 -4 24 -10z m27 -116 c0 -5 -4 -10 -10 -10 -5 0
-10 5 -10 10 0 6 5 10 10 10 6 0 10 -4 10 -10z m-116 -69 c3 -5 -1 -14 -8 -20
-12 -10 -14 -9 -11 6 2 10 4 19 4 21 2 5 10 2 15 -7z m121 -40 c3 -5 2 -12 -3
-15 -5 -3 -9 1 -9 9 0 17 3 19 12 6z m-165 -96 c0 -2 -6 -5 -13 -8 -8 -3 -14
1 -14 8 0 7 6 11 14 8 7 -3 13 -6 13 -8z"/>
<path d="M1884 868 c-3 -4 -10 -5 -16 -2 -7 4 -8 2 -4 -5 4 -6 12 -8 18 -5 7
4 8 2 4 -4 -4 -6 -13 -9 -21 -6 -9 4 -13 -1 -12 -14 1 -14 8 -19 27 -18 18 1
25 -4 25 -18 0 -11 8 -20 18 -22 14 -2 15 1 8 10 -6 7 -8 16 -4 19 3 4 1 7 -7
7 -10 0 -10 3 0 15 7 8 16 12 21 9 5 -3 9 0 9 6 0 6 5 8 12 4 7 -4 8 -3 4 4
-4 6 -13 9 -22 5 -9 -3 -14 0 -12 8 3 15 -39 22 -48 7z m42 -13 c-1 -8 -5 -18
-9 -22 -12 -11 -46 -14 -52 -3 -3 5 1 7 9 4 9 -3 20 3 28 15 15 24 27 27 24 6z"/>
<path d="M939 889 c-1 -2 -2 -97 -3 -211 l-2 -206 33 -4 c43 -5 58 4 46 27 -7
12 -13 14 -17 6 -4 -6 -2 -11 4 -11 6 0 8 -5 4 -11 -3 -6 -9 -7 -13 -2 -3 5
-15 9 -26 8 -15 0 -19 7 -20 36 -1 27 2 36 12 32 7 -3 13 0 13 6 0 6 -5 10
-12 8 -7 -1 -12 7 -12 18 0 11 5 19 11 18 6 -1 17 4 23 12 14 17 7 19 -19 6
-14 -8 -17 -4 -17 24 0 20 4 31 11 27 5 -3 4 1 -3 10 -9 12 -10 18 -2 23 8 5
7 12 -2 23 -12 15 -11 16 5 3 10 -8 17 -9 17 -3 0 6 -4 14 -10 17 -16 10 -11
28 6 21 9 -3 12 -2 9 5 -4 6 -14 8 -24 5 -14 -5 -13 -4 2 8 18 14 24 32 8 21
-5 -3 -13 -1 -16 5 -4 6 -3 10 2 9 20 -3 27 2 13 11 -13 8 -13 11 -1 22 12 11
12 10 6 -2 -8 -13 -6 -13 7 -2 10 8 14 20 11 30 -5 11 -8 12 -11 4 -3 -10 -7
-10 -18 -1 -8 6 -15 10 -15 8z m16 -18 c3 -5 2 -12 -3 -15 -5 -3 -9 1 -9 9 0
17 3 19 12 6z"/>
<path d="M990 880 c0 -5 5 -10 10 -10 6 0 10 5 10 10 0 6 -4 10 -10 10 -5 0
-10 -4 -10 -10z"/>
<path d="M1000 863 c-24 -24 -35 -79 -18 -89 5 -3 6 -10 2 -15 -3 -5 -10 -6
-16 -3 -7 4 -8 2 -4 -5 4 -6 12 -9 17 -6 17 11 9 -12 -11 -30 -18 -17 -19 -42
0 -30 4 3 10 0 12 -6 2 -7 10 -4 18 7 13 16 13 17 -2 11 -10 -3 -20 -2 -23 4
-4 5 -3 9 2 8 4 -1 15 -1 23 0 13 1 13 2 0 11 -9 6 -10 10 -3 10 6 0 10 9 8
19 -2 13 1 18 10 15 7 -3 16 -1 20 5 4 7 0 8 -11 4 -13 -5 -16 -3 -11 10 9 25
-2 50 -18 37 -8 -7 -12 -5 -12 5 0 8 5 11 10 8 6 -4 7 -1 2 8 -5 8 -5 11 0 7
4 -4 17 -3 28 3 15 9 18 8 12 -3 -3 -7 0 -5 8 5 13 16 15 16 21 2 3 -9 10 -13
16 -10 5 3 10 1 10 -5 0 -6 5 -8 11 -4 8 5 8 9 -1 14 -9 5 -9 9 -1 14 6 4 11
2 11 -4 0 -6 4 -9 9 -5 5 3 12 1 16 -5 4 -6 12 -7 18 -3 7 3 3 -3 -7 -15 -11
-12 -14 -22 -8 -22 7 0 12 -4 12 -10 0 -6 -3 -9 -7 -9 -21 3 -33 -2 -27 -12 4
-8 9 -7 15 2 6 10 10 9 15 -6 5 -12 3 -20 -5 -23 -8 -3 -9 -8 -2 -16 7 -8 4
-12 -12 -13 -18 -2 -19 0 -7 8 12 9 12 10 -3 5 -10 -3 -21 -6 -23 -6 -2 0 -4
-5 -4 -11 0 -5 4 -8 9 -5 4 3 17 -2 27 -10 10 -9 13 -13 7 -9 -9 4 -11 1 -7
-9 3 -9 1 -16 -5 -16 -6 0 -10 3 -10 8 3 19 -2 33 -11 27 -16 -10 9 -48 26
-41 10 4 12 2 8 -6 -5 -7 -3 -8 5 -3 10 6 11 3 2 -13 -8 -14 -8 -23 -1 -27 8
-5 8 -11 1 -19 -6 -7 -9 -15 -6 -18 3 -3 -1 -11 -10 -18 -9 -7 -15 -8 -15 -2
0 6 6 13 13 15 9 4 9 6 0 6 -18 1 -27 -19 -14 -32 9 -9 14 -9 20 2 15 24 23
-16 11 -49 -1 -3 -2 -9 -1 -13 1 -5 -4 -5 -10 -1 -6 3 -16 0 -21 -7 -8 -11 -9
-10 -4 4 3 10 2 15 -3 12 -5 -3 -13 0 -16 5 -5 7 -12 5 -22 -7 -8 -10 -12 -12
-8 -6 4 9 1 11 -9 7 -9 -3 -16 -1 -16 6 0 6 4 9 8 6 4 -2 14 0 22 6 12 8 12 9
-2 5 -12 -4 -16 -1 -13 13 2 10 -3 21 -11 24 -12 5 -12 1 -4 -17 11 -21 11
-21 -4 -3 -21 26 -20 40 0 32 14 -5 15 -4 4 9 -8 10 -17 12 -29 5 -13 -6 -18
-5 -18 5 0 8 5 11 10 8 5 -3 13 1 18 8 7 11 9 11 9 1 0 -7 5 -10 11 -7 6 5 4
11 -7 19 -16 12 -16 13 0 19 9 4 15 3 11 -2 -6 -11 42 -7 53 4 4 4 -3 4 -15 1
-15 -5 -23 -3 -23 4 0 6 4 9 9 6 4 -3 17 2 27 10 15 12 15 14 3 11 -9 -3 -21
-1 -27 5 -6 6 -12 6 -17 -3 -5 -7 -4 -10 3 -5 6 3 13 3 16 -2 3 -5 0 -9 -7 -9
-22 -1 -42 -8 -50 -18 -5 -6 -6 -1 -2 10 3 11 3 16 -1 12 -4 -4 -13 -2 -21 5
-10 8 -17 8 -25 0 -9 -9 -8 -12 3 -12 12 0 12 -2 -1 -11 -13 -9 -13 -10 0 -6
8 2 14 11 12 18 -1 8 4 6 13 -5 13 -18 13 -21 -1 -38 -9 -9 -20 -16 -24 -13
-4 2 -7 -2 -7 -10 0 -8 4 -12 8 -9 17 10 21 -20 4 -33 -18 -12 -10 -19 18 -14
4 0 7 -4 7 -10 0 -6 -8 -8 -18 -5 -12 4 -19 1 -19 -8 0 -16 19 -15 40 3 13 10
18 8 31 -17 12 -23 21 -29 36 -25 11 3 17 9 14 14 -3 5 -1 9 4 9 6 0 13 -7 16
-16 5 -12 10 -14 20 -5 7 6 16 8 20 4 12 -12 37 -12 29 0 -10 17 -11 109 0
131 6 12 6 16 -2 12 -11 -7 -9 54 3 72 3 6 3 13 -1 15 -10 6 -9 109 0 124 11
17 -12 60 -31 60 -10 0 -23 -4 -29 -10 -9 -6 -13 -6 -13 3 0 10 -3 10 -14 1
-10 -8 -16 -9 -21 -1 -10 16 -28 10 -55 -17z m50 13 c0 -2 -7 -7 -16 -10 -8
-3 -12 -2 -9 4 6 10 25 14 25 6z m90 -6 c8 -5 12 -11 10 -14 -3 -2 -14 2 -24
10 -22 15 -10 19 14 4z m-50 -4 c0 -3 -4 -8 -10 -11 -5 -3 -10 -1 -10 4 0 6 5
11 10 11 6 0 10 -2 10 -4z m-88 -73 c-6 -3 -9 -10 -6 -15 4 -7 2 -8 -5 -4 -9
6 -9 11 0 22 6 8 15 12 18 8 3 -4 0 -9 -7 -11z m151 -109 c-3 -8 -7 -14 -10
-14 -3 0 -3 6 0 14 3 7 0 20 -6 27 -10 11 -9 11 5 0 9 -7 14 -19 11 -27z
m-139 -147 l17 -28 -24 15 c-13 9 -27 13 -32 9 -4 -5 -2 2 6 14 7 12 14 21 14
20 1 -1 9 -15 19 -30z"/>
<path d="M1465 850 c-3 -5 -13 -6 -22 -3 -13 5 -15 2 -10 -13 7 -19 7 -19 -8
0 -11 14 -15 16 -15 5 0 -11 -2 -11 -9 -1 -6 10 -10 10 -20 -1 -9 -11 -8 -17
4 -27 9 -7 18 -10 22 -6 3 3 0 6 -8 6 -12 0 -12 2 0 9 10 7 24 3 44 -11 l30
-21 -19 28 -18 28 22 -12 c17 -9 21 -9 18 1 -1 7 -1 9 2 5 2 -4 11 -2 20 5 14
10 15 10 5 -2 -20 -21 -16 -29 14 -25 l26 3 -24 -19 c-20 -16 -20 -18 -4 -12
19 7 19 6 3 -11 -20 -20 -24 -31 -7 -20 8 4 7 -1 -1 -17 -11 -23 -11 -24 6 -4
13 16 15 17 11 3 -7 -20 9 -35 16 -16 4 10 6 10 6 0 1 -7 6 -10 12 -7 6 5 3
13 -11 22 -15 10 -19 22 -16 41 2 15 5 27 6 27 2 0 4 10 5 23 1 12 -2 22 -6
22 -5 0 -9 -4 -9 -10 0 -5 -4 -10 -10 -10 -5 0 -9 5 -7 11 3 14 -40 22 -48 9z"/>
<path d="M1045 840 c-3 -5 -13 -7 -23 -4 -10 4 -13 3 -6 -3 6 -4 10 -18 9 -30
-1 -12 2 -20 6 -17 17 10 18 -16 1 -28 -9 -7 -17 -24 -17 -38 1 -14 -6 -34
-14 -45 -9 -11 -12 -17 -7 -13 5 4 15 3 22 -3 9 -7 14 -5 19 10 7 24 16 26 33
9 12 -12 14 -10 16 32 1 15 10 29 24 36 12 6 26 15 30 19 4 5 2 5 -4 2 -7 -4
-17 0 -23 7 -10 11 -8 17 6 25 10 6 14 11 9 11 -5 0 -3 6 3 14 7 8 8 17 3 20
-6 3 -15 -1 -22 -9 -11 -14 -15 -14 -36 0 -13 8 -25 11 -29 5z m21 -12 c4 -6
3 -8 -4 -4 -7 4 -10 -1 -9 -14 2 -24 13 -26 21 -4 4 9 9 14 13 10 3 -3 16 2
27 11 18 16 18 15 -2 -11 -15 -20 -19 -32 -12 -41 7 -8 4 -17 -10 -30 -13 -12
-18 -27 -15 -42 3 -20 2 -23 -10 -13 -8 7 -12 16 -9 21 3 5 -2 6 -10 3 -9 -3
-14 -10 -11 -14 3 -4 -3 -14 -12 -21 -15 -12 -16 -12 -8 1 5 8 11 22 13 30 1
8 4 20 5 26 2 7 9 19 15 27 9 10 10 17 2 22 -6 3 -8 11 -5 16 4 5 1 9 -6 9 -8
0 -8 4 1 15 15 18 17 18 26 3z"/>
<path d="M1066 777 c-27 -44 -29 -59 -7 -47 27 14 44 37 32 44 -6 4 -8 13 -4
21 9 25 -1 16 -21 -18z m24 -11 c0 -2 -7 -9 -15 -16 -13 -11 -14 -10 -9 4 5
14 24 23 24 12z"/>
<path d="M661 802 c-7 -13 -6 -19 2 -19 7 0 13 9 13 19 0 10 -1 18 -3 18 -1 0
-7 -8 -12 -18z"/>
<path d="M1414 796 c0 -29 5 -32 26 -13 12 10 12 9 2 -4 -10 -14 -10 -18 4
-23 11 -4 15 -2 11 7 -3 8 0 14 6 14 7 0 13 -12 14 -26 1 -14 4 -35 6 -46 3
-11 6 -24 6 -28 1 -5 6 -5 11 -2 6 4 8 10 5 15 -3 5 0 12 6 16 8 5 9 3 4 -6
-5 -8 -4 -11 3 -6 6 3 16 -3 22 -14 11 -21 30 -27 30 -9 0 5 -4 7 -10 4 -5 -3
-10 -1 -10 4 0 6 7 11 15 11 8 0 15 4 15 9 0 4 -11 7 -25 6 -14 -2 -27 1 -30
5 -3 5 -12 7 -19 4 -10 -4 -13 4 -12 33 0 21 5 45 10 53 5 8 6 12 1 8 -4 -4
-17 -3 -29 3 -19 9 -20 9 -3 -4 14 -12 15 -16 4 -20 -8 -3 -20 0 -26 6 -6 6
-11 7 -11 2 0 -5 -6 -1 -13 9 -12 16 -13 16 -13 -8z"/>
<path d="M1394 774 c5 -13 4 -14 -7 -6 -20 17 -30 2 -12 -18 14 -16 13 -18
-15 -30 -31 -13 -37 -24 -20 -35 8 -5 7 -11 -1 -21 -9 -11 -9 -14 0 -14 7 0 9
-5 4 -12 -10 -17 -11 -150 -2 -163 7 -9 30 -11 71 -6 9 1 3 49 -7 59 -4 4 -5
1 0 -7 5 -10 4 -12 -4 -7 -13 9 -11 -15 3 -25 4 -4 3 -10 -3 -13 -6 -4 -11 -3
-11 3 0 5 -10 8 -23 7 -14 -2 -24 2 -24 10 0 9 5 10 18 3 11 -6 20 -5 24 1 3
5 1 10 -5 10 -7 0 -10 7 -6 18 5 14 4 14 -9 -2 -8 -11 -15 -16 -15 -11 0 5 8
17 17 27 17 19 16 20 -7 39 -18 14 -20 17 -6 12 15 -5 17 -3 10 8 -11 19 -12
89 -1 89 5 0 6 -7 3 -16 -3 -9 -2 -12 4 -9 6 4 9 14 8 23 -2 10 3 16 11 14 7
-1 19 2 25 8 7 5 15 9 17 7 2 -1 -1 3 -8 9 -7 6 -10 14 -6 17 6 7 32 -22 33
-37 0 -4 -6 -6 -13 -3 -8 3 -13 -3 -14 -17 0 -11 1 -15 4 -8 6 17 20 15 20 -3
0 -8 -5 -11 -10 -8 -6 3 -7 1 -3 -6 4 -6 12 -8 18 -5 6 4 19 -4 30 -17 l19
-24 -11 24 c-9 17 -9 22 -1 16 7 -4 20 -1 29 7 16 12 16 11 2 -6 -14 -18 -13
-18 8 -12 12 4 23 4 23 -1 6 -38 4 -90 -4 -100 -6 -9 -6 -13 2 -13 7 0 9 -4 6
-10 -3 -5 -2 -10 3 -10 5 0 9 30 8 67 0 53 -5 71 -21 88 -17 18 -22 19 -37 7
-11 -9 -18 -10 -23 -3 -6 11 -16 47 -17 67 -1 6 -7 11 -15 12 -7 1 -20 3 -28
4 -14 1 -19 11 -16 31 0 4 -4 7 -10 7 -6 0 -8 -7 -5 -16z m10 -33 c-2 -3 -12
3 -22 13 -16 17 -16 18 5 5 12 -7 20 -15 17 -18z m6 -15 c0 -3 -4 -8 -10 -11
-5 -3 -10 -1 -10 4 0 6 5 11 10 11 6 0 10 -2 10 -4z m-30 -11 c0 -2 -10 -9
-22 -15 -22 -11 -22 -10 -4 4 21 17 26 19 26 11z m87 -11 c-3 -4 -2 -15 4 -25
7 -14 6 -17 -5 -13 -8 3 -13 13 -11 22 5 23 4 22 12 22 3 0 3 -3 0 -6z m-97
-144 c0 -4 -6 -12 -13 -18 -10 -9 -13 -6 -13 12 0 16 5 22 13 19 7 -3 13 -9
13 -13z"/>
<path d="M630 755 c-14 -7 -24 -17 -23 -22 2 -4 -5 -8 -15 -8 -9 0 -17 -6 -17
-14 0 -18 -21 -26 -30 -12 -3 6 -12 11 -18 11 -9 0 -12 -23 -12 -74 0 -41 3
-72 8 -69 4 2 7 -1 7 -6 0 -6 -4 -11 -10 -11 -5 0 -2 -8 8 -18 11 -12 20 -14
24 -8 5 7 8 5 8 -4 0 -10 3 -11 8 -3 4 6 14 13 22 15 8 2 23 13 33 26 14 17
22 20 32 12 10 -8 13 -7 11 4 -1 9 -5 18 -9 22 -3 4 -2 15 4 25 5 11 7 19 3
19 -3 0 1 11 10 25 9 14 14 26 11 26 -3 1 -9 2 -15 3 -8 1 -12 9 -9 19 6 21 5
37 -2 37 -6 0 -7 5 -4 10 8 13 5 12 -25 -5z m9 -46 c-13 -10 -27 -15 -32 -12
-5 3 -4 -4 2 -16 14 -25 19 -27 17 -5 0 9 5 19 12 21 6 3 12 0 12 -7 0 -6 -4
-8 -10 -5 -5 3 -10 2 -10 -3 0 -6 7 -12 15 -15 19 -8 11 -46 -15 -64 -11 -8
-20 -19 -20 -25 0 -6 9 -3 19 6 15 14 21 15 27 4 4 -7 3 -10 -1 -5 -5 4 -18
-2 -30 -13 -12 -11 -30 -22 -41 -24 -10 -2 -26 -6 -34 -8 -8 -1 -15 4 -16 12
0 8 -2 17 -3 20 -7 15 -7 52 1 56 4 3 8 10 8 15 0 6 -4 8 -8 5 -7 -4 -9 30 -3
53 1 2 10 -4 21 -14 13 -12 20 -14 20 -5 0 10 3 10 15 0 17 -14 19 -7 5 20 -8
16 -7 18 4 14 8 -3 17 -1 20 5 4 6 14 7 24 4 15 -6 16 -5 2 13 -14 18 -14 18
3 5 18 -14 18 -15 -4 -32z"/>
<path d="M534 675 c3 -21 32 -39 41 -26 3 6 12 8 21 4 12 -5 12 -7 -3 -18 -12
-9 -22 -10 -30 -4 -21 18 -38 -32 -20 -58 5 -7 6 -17 2 -24 -5 -7 0 -7 16 2
13 7 25 12 27 11 1 -1 7 -2 14 -2 6 0 3 7 -8 16 -10 8 -14 13 -8 10 6 -3 22 6
34 20 25 26 35 54 19 54 -5 0 -9 -6 -9 -12 -1 -9 -4 -8 -13 2 -7 9 -21 15 -32
15 -11 0 -28 6 -37 13 -14 12 -16 11 -14 -3z m100 -47 c-3 -5 -9 -6 -14 -3 -5
3 -12 -4 -15 -16 -5 -15 -9 -18 -15 -9 -6 9 -9 9 -15 1 -4 -7 -2 -18 5 -26 8
-10 8 -13 -2 -11 -30 4 -38 22 -29 65 1 2 7 -1 14 -7 8 -7 17 -7 29 2 19 14
50 17 42 4z"/>
<path d="M1877 743 c10 -3 9 -9 -3 -21 -15 -14 -15 -17 2 -29 11 -8 13 -13 5
-13 -8 0 -2 -9 12 -20 23 -18 28 -51 9 -48 -19 2 -33 -3 -28 -11 6 -9 -27 -52
-41 -52 -4 0 -7 -7 -5 -16 2 -8 -1 -12 -7 -9 -5 4 -12 2 -15 -2 -3 -5 -16 -8
-30 -7 -26 3 -42 -25 -24 -43 12 -12 50 -3 42 9 -3 5 -1 9 4 9 6 0 13 -7 16
-16 5 -12 10 -13 19 -6 8 7 18 7 27 2 21 -14 27 -12 32 8 3 11 0 19 -7 19 -7
0 -11 -7 -8 -16 3 -10 1 -12 -4 -6 -13 16 -35 17 -46 3 -6 -9 -7 -8 -3 5 3 10
2 15 -3 12 -5 -3 -13 0 -17 6 -5 8 -3 9 6 4 9 -6 11 -4 5 6 -6 11 -5 12 6 2
19 -19 27 -16 25 10 -1 13 4 21 12 19 8 -1 11 2 7 8 -4 6 1 7 12 4 15 -5 16
-4 3 5 -8 6 -10 11 -4 11 5 0 16 -6 23 -12 11 -11 13 -10 8 4 -3 10 -1 20 5
24 7 5 8 2 3 -6 -5 -9 -4 -11 3 -6 8 5 10 1 6 -11 -5 -15 -4 -16 5 -3 9 13 11
13 11 0 0 -13 1 -13 11 0 9 13 10 13 6 0 -2 -8 -10 -14 -16 -12 -7 1 -5 -8 5
-23 9 -14 12 -25 8 -25 -5 0 -2 -5 6 -10 12 -7 10 -9 -7 -7 -18 1 -20 4 -11
15 10 11 8 13 -8 10 -18 -3 -34 -16 -34 -29 0 -3 18 -6 39 -7 l39 -2 -3 50
c-2 28 1 50 7 50 5 0 7 4 3 10 -3 5 -12 7 -19 4 -16 -6 -50 42 -36 51 6 4 8
11 4 16 -3 5 -1 16 5 23 8 9 7 13 -4 14 -8 1 -22 3 -30 4 -16 1 -10 13 7 13 6
0 12 8 14 18 1 9 -2 15 -7 11 -5 -3 -6 -10 -3 -16 4 -7 2 -8 -4 -4 -6 4 -9 12
-6 19 3 8 -4 13 -18 14 -13 0 -17 -1 -11 -4z m13 -33 c0 -5 -5 -10 -11 -10 -5
0 -7 5 -4 10 3 6 8 10 11 10 2 0 4 -4 4 -10z m32 -38 c-10 -3 -10 -7 0 -20 9
-12 6 -12 -9 2 -25 21 -22 39 4 29 11 -5 13 -8 5 -11z m17 -85 c13 -21 13 -21
-5 -5 -14 12 -24 14 -36 7 -13 -7 -16 -6 -13 3 9 22 40 18 54 -5z m28 -59 c2
-17 0 -19 -7 -8 -5 8 -6 18 -4 22 8 12 10 10 11 -14z m-177 -27 c0 -13 -26
-32 -33 -24 -8 7 11 33 24 33 5 0 9 -4 9 -9z"/>
<path d="M1386 688 c3 -4 -1 -18 -9 -30 -15 -25 -16 -37 -4 -55 5 -7 5 -13 1
-13 -3 0 -2 -6 5 -13 6 -8 9 -24 6 -36 -3 -17 -1 -20 8 -12 16 13 41 -2 35
-20 -9 -24 10 -48 32 -42 11 3 17 9 14 14 -3 5 -1 9 4 9 6 0 13 -8 16 -17 5
-12 10 -13 18 -5 8 8 17 8 30 1 28 -15 34 15 8 41 -14 14 -18 25 -12 33 5 7 8
30 8 51 -1 33 -5 40 -23 41 -12 1 -20 -2 -17 -6 11 -19 -16 -17 -30 2 -8 12
-19 19 -24 15 -11 -7 -46 29 -39 41 3 5 -3 9 -13 9 -10 0 -16 -4 -14 -8z m64
-52 c0 4 10 -2 23 -14 21 -19 25 -20 43 -7 19 13 21 12 20 -11 -1 -13 -12 -31
-24 -40 -32 -22 -27 -38 6 -18 15 9 20 10 11 3 -14 -13 -13 -16 8 -39 12 -13
23 -29 23 -35 0 -7 -3 -7 -8 0 -11 15 -42 18 -42 3 0 -7 -7 -2 -16 10 l-15 22
-20 -22 c-12 -13 -18 -17 -14 -10 3 6 0 12 -7 12 -10 0 -11 2 0 8 10 7 7 15
-10 38 -12 16 -27 32 -33 36 -5 4 -11 12 -11 18 -1 5 -2 11 -4 13 -1 1 -3 10
-5 20 -2 10 1 14 8 10 6 -4 8 0 4 9 -9 26 4 29 34 7 16 -11 29 -17 29 -13z"/>
<path d="M1396 649 c3 -10 0 -20 -6 -24 -8 -5 -8 -11 1 -21 6 -8 9 -14 5 -14
-3 0 2 -8 12 -18 10 -10 26 -29 35 -42 9 -13 20 -20 24 -16 4 4 1 11 -7 16 -8
6 -10 10 -4 10 7 0 18 -10 27 -23 8 -12 24 -23 35 -23 20 0 20 1 4 19 -10 11
-18 14 -20 7 -3 -7 -9 -4 -17 7 -11 15 -9 20 18 40 17 13 26 23 19 23 -7 0
-14 -1 -16 -2 -3 -2 -15 7 -29 20 -20 19 -25 21 -30 8 -3 -9 -2 -18 3 -21 4
-3 10 -1 12 4 1 5 10 2 18 -7 13 -14 12 -15 -2 -10 -8 4 -21 1 -28 -5 -10 -9
-11 -9 -6 1 4 7 4 12 -1 11 -18 -3 -33 2 -33 11 0 6 6 9 13 8 6 -2 12 3 12 10
0 6 -3 11 -7 10 -4 -2 -14 6 -23 17 -10 14 -13 15 -9 4z m14 -29 c0 -5 -5 -10
-11 -10 -5 0 -7 5 -4 10 3 6 8 10 11 10 2 0 4 -4 4 -10z m95 -40 c-3 -6 -19
-17 -35 -25 -28 -14 -30 -14 -40 7 -10 21 -10 21 3 5 13 -15 15 -15 20 -2 4 8
13 12 21 9 8 -3 17 -1 21 5 3 6 8 11 11 11 3 0 2 -5 -1 -10z"/>
<path d="M1099 655 c-4 -16 -7 -26 -8 -34 0 -5 -12 -8 -26 -7 -13 2 -22 0 -20
-5 3 -4 1 -10 -5 -14 -6 -4 -4 -15 6 -31 9 -13 13 -24 9 -24 -4 0 3 -8 16 -19
28 -22 61 -22 65 1 1 10 -3 15 -10 12 -7 -3 -19 3 -27 12 -12 14 -10 19 14 38
26 21 27 36 3 36 -6 0 -4 -5 4 -10 9 -6 10 -10 3 -10 -19 0 -26 20 -9 26 9 3
16 10 16 14 0 9 -29 22 -31 15z m3 -61 c-2 -5 -11 -16 -21 -25 -16 -15 -18
-15 -29 2 -9 15 -8 20 5 27 20 12 49 9 45 -4z m2 -76 c-3 -5 -12 -4 -20 3 -7
6 -11 15 -8 21 3 5 12 4 20 -3 7 -6 11 -15 8 -21z"/>
<path d="M1059 590 c-7 -5 -7 -10 -2 -13 6 -4 18 -1 28 7 15 11 15 13 2 13 -9
0 -21 -4 -28 -7z"/>
<path d="M1879 540 c-7 -5 -16 -7 -19 -5 -3 2 -6 -7 -6 -20 0 -14 4 -21 11
-17 5 3 17 8 25 10 8 1 22 4 30 7 8 2 17 4 20 4 2 1 -1 6 -8 13 -15 15 -36 18
-53 8z m47 -12 c3 -4 -1 -5 -10 -4 -8 1 -18 5 -22 8 -3 4 1 5 10 4 8 -1 18 -5
22 -8z m-42 -6 c3 -5 -1 -9 -9 -9 -8 0 -12 4 -9 9 3 4 7 8 9 8 2 0 6 -4 9 -8z"/>
<path d="M515 520 c3 -5 8 -10 11 -10 2 0 4 5 4 10 0 6 -5 10 -11 10 -5 0 -7
-4 -4 -10z"/>
<path d="M530 352 c-6 -2 -10 -71 -10 -178 l0 -174 715 0 715 0 0 175 c0 175
0 175 -22 176 -68 3 -1390 3 -1398 1z"/>
</g>
</svg>
