<svg width="191" height="26" viewBox="0 0 191 26" fill="none" xmlns="http://www.w3.org/2000/svg">
<path fill-rule="evenodd" clip-rule="evenodd" d="M9.5708 4.42913L13.0001 1L16.4294 4.42913L13.0001 7.85826L9.5708 4.42913ZM9.37606 9.22834L9.37553 9.37483H4.5257V4.52526H9.37553V9.22754L9.37606 9.22834ZM21.4748 9.37483V4.52526H16.6247V9.37483L16.7397 9.37537L16.7403 9.37483H21.4748ZM16.4752 9.42757L13.1068 12.7958V8.01371L16.4609 4.65971L16.4752 9.42757ZM21.3402 9.53857L17.9546 12.9243H13.19L16.5899 9.52459L21.3402 9.53857ZM16.6222 16.474L21.3403 16.46L17.9546 13.0743H13.222L16.6222 16.474ZM16.4609 21.3392L16.4752 16.5391L13.1068 13.1711V17.9849L16.4609 21.3392ZM12.9565 17.922V13.1579L9.52539 16.589L9.5391 21.3391L12.9565 17.922ZM12.9565 12.8087V8.07688L9.5391 4.65971L9.52539 9.37757L12.9565 12.8087ZM12.86 12.9243H8.04564L4.66 9.53857L9.46038 9.52459L12.86 12.9243ZM9.42812 16.474L12.828 13.0743H8.04564L4.66 16.46L9.42812 16.474ZM21.4753 16.6227H16.6236V21.4741H21.4753V16.6227ZM4.52487 16.6227H9.37685V21.4741H4.52487V16.6227ZM21.5706 9.57075L18.1413 12.9999L21.5706 16.429L25 12.9999L21.5706 9.57075ZM4.42913 9.57021L1 12.9992L4.42913 16.4281L7.85825 12.9992L4.42913 9.57021ZM9.57034 21.5711L12.9993 18.1423L16.4284 21.5712L12.9995 25L9.57034 21.5711Z" fill="#CE0022"/>
<path d="M13.0001 1L13.1769 0.823219L13.0001 0.646456L12.8233 0.823219L13.0001 1ZM9.5708 4.42913L9.39403 4.25235L9.21724 4.42913L9.39403 4.60591L9.5708 4.42913ZM16.4294 4.42913L16.6062 4.60591L16.783 4.42913L16.6062 4.25235L16.4294 4.42913ZM13.0001 7.85826L12.8233 8.03504L13.0001 8.21181L13.1769 8.03504L13.0001 7.85826ZM9.37553 9.37483V9.62483H9.62461L9.62553 9.37575L9.37553 9.37483ZM9.37606 9.22834L9.62606 9.22926L9.62634 9.15318L9.58419 9.08984L9.37606 9.22834ZM4.5257 9.37483H4.2757V9.62483H4.5257V9.37483ZM4.5257 4.52526V4.27526H4.2757V4.52526H4.5257ZM9.37553 4.52526H9.62553V4.27526H9.37553V4.52526ZM9.37553 9.22754H9.12553V9.30312L9.1674 9.36604L9.37553 9.22754ZM21.4748 4.52526H21.7248V4.27526H21.4748V4.52526ZM21.4748 9.37483V9.62483H21.7248V9.37483H21.4748ZM16.6247 4.52526V4.27526H16.3747V4.52526H16.6247ZM16.6247 9.37483H16.3747V9.62367L16.6235 9.62483L16.6247 9.37483ZM16.7397 9.37537L16.7385 9.62537L16.8428 9.62586L16.9165 9.55215L16.7397 9.37537ZM16.7403 9.37483V9.12483H16.6367L16.5635 9.19806L16.7403 9.37483ZM13.1068 12.7958H12.8568V13.3993L13.2835 12.9726L13.1068 12.7958ZM16.4752 9.42757L16.652 9.60435L16.7255 9.53081L16.7252 9.42682L16.4752 9.42757ZM13.1068 8.01371L12.93 7.83693L12.8568 7.91016V8.01371H13.1068ZM16.4609 4.65971L16.7109 4.65896L16.7091 4.05797L16.2842 4.48293L16.4609 4.65971ZM17.9546 12.9243V13.1743H18.0581L18.1314 13.1011L17.9546 12.9243ZM21.3402 9.53857L21.517 9.71534L21.942 9.29034L21.341 9.28857L21.3402 9.53857ZM13.19 12.9243L13.0132 12.7475L12.5864 13.1743H13.19V12.9243ZM16.5899 9.52459L16.5906 9.27459L16.4866 9.27429L16.4131 9.34781L16.5899 9.52459ZM21.3403 16.46L21.341 16.71L21.942 16.7082L21.5171 16.2832L21.3403 16.46ZM16.6222 16.474L16.4454 16.6508L16.5189 16.7243L16.6229 16.724L16.6222 16.474ZM17.9546 13.0743L18.1314 12.8975L18.0582 12.8243H17.9546V13.0743ZM13.222 13.0743V12.8243H12.6184L13.0452 13.2511L13.222 13.0743ZM16.4752 16.5391L16.7252 16.5398L16.7255 16.4358L16.6519 16.3623L16.4752 16.5391ZM16.4609 21.3392L16.2842 21.516L16.7092 21.941L16.7109 21.3399L16.4609 21.3392ZM13.1068 13.1711L13.2835 12.9943L12.8568 12.5676V13.1711H13.1068ZM13.1068 17.9849H12.8568V18.0885L12.93 18.1617L13.1068 17.9849ZM12.9565 13.1579H13.2065V12.5543L12.7797 12.9811L12.9565 13.1579ZM12.9565 17.922L13.1332 18.0987L13.2065 18.0255V17.922H12.9565ZM9.52539 16.589L9.34861 16.4122L9.27509 16.4858L9.27539 16.5897L9.52539 16.589ZM9.5391 21.3391L9.2891 21.3398L9.29084 21.9409L9.71587 21.5159L9.5391 21.3391ZM12.9565 8.07688H13.2065V7.97332L13.1332 7.9001L12.9565 8.07688ZM12.9565 12.8087L12.7797 12.9855L13.2065 13.4123V12.8087H12.9565ZM9.5391 4.65971L9.71587 4.48293L9.29085 4.05792L9.2891 4.65898L9.5391 4.65971ZM9.52539 9.37757L9.27539 9.37684L9.27509 9.48082L9.34861 9.55435L9.52539 9.37757ZM8.04564 12.9243L7.86886 13.1011L7.94208 13.1743H8.04564V12.9243ZM12.86 12.9243V13.1743H13.4635L13.0368 12.7475L12.86 12.9243ZM4.66 9.53857L4.65928 9.28857L4.05821 9.29032L4.48322 9.71534L4.66 9.53857ZM9.46038 9.52459L9.63715 9.34782L9.56363 9.27429L9.45965 9.27459L9.46038 9.52459ZM12.828 13.0743L13.0048 13.2511L13.4316 12.8243H12.828V13.0743ZM9.42812 16.474L9.42738 16.724L9.53136 16.7243L9.60489 16.6508L9.42812 16.474ZM8.04564 13.0743V12.8243H7.94208L7.86886 12.8975L8.04564 13.0743ZM4.66 16.46L4.48322 16.2832L4.05822 16.7082L4.65927 16.71L4.66 16.46ZM16.6236 16.6227V16.3727H16.3736V16.6227H16.6236ZM21.4753 16.6227H21.7253V16.3727H21.4753V16.6227ZM16.6236 21.4741H16.3736V21.7241H16.6236V21.4741ZM21.4753 21.4741V21.7241H21.7253V21.4741H21.4753ZM9.37685 16.6227H9.62685V16.3727H9.37685V16.6227ZM4.52487 16.6227V16.3727H4.27487V16.6227H4.52487ZM9.37685 21.4741V21.7241H9.62685V21.4741H9.37685ZM4.52487 21.4741H4.27487V21.7241H4.52487V21.4741ZM18.1413 12.9999L17.9646 12.8231L17.7878 12.9999L17.9646 13.1767L18.1413 12.9999ZM21.5706 9.57075L21.7474 9.39397L21.5706 9.21721L21.3939 9.39397L21.5706 9.57075ZM21.5706 16.429L21.3939 16.6058L21.5706 16.7826L21.7474 16.6058L21.5706 16.429ZM25 12.9999L25.1767 13.1767L25.3535 12.9999L25.1767 12.8231L25 12.9999ZM1 12.9992L0.823228 12.8224L0.646437 12.9992L0.823228 13.1759L1 12.9992ZM4.42913 9.57021L4.6059 9.39343L4.42913 9.21667L4.25235 9.39343L4.42913 9.57021ZM4.42913 16.4281L4.25235 16.6049L4.42913 16.7816L4.6059 16.6049L4.42913 16.4281ZM7.85825 12.9992L8.03502 13.1759L8.21181 12.9992L8.03502 12.8224L7.85825 12.9992ZM12.9993 18.1423L13.1761 17.9655L12.9993 17.7888L12.8225 17.9655L12.9993 18.1423ZM9.57034 21.5711L9.39357 21.3943L9.21678 21.5711L9.39357 21.7478L9.57034 21.5711ZM16.4284 21.5712L16.6052 21.748L16.782 21.5712L16.6052 21.3945L16.4284 21.5712ZM12.9995 25L12.8227 25.1768L12.9995 25.3535L13.1762 25.1768L12.9995 25ZM12.8233 0.823219L9.39403 4.25235L9.74757 4.60591L13.1769 1.17678L12.8233 0.823219ZM16.6062 4.25235L13.1769 0.823219L12.8233 1.17678L16.2527 4.60591L16.6062 4.25235ZM13.1769 8.03504L16.6062 4.60591L16.2527 4.25235L12.8233 7.68148L13.1769 8.03504ZM9.39403 4.60591L12.8233 8.03504L13.1769 7.68148L9.74757 4.25235L9.39403 4.60591ZM9.62553 9.37575L9.62606 9.22926L9.12607 9.22743L9.12553 9.37392L9.62553 9.37575ZM4.5257 9.62483H9.37553V9.12483H4.5257V9.62483ZM4.2757 4.52526V9.37483H4.7757V4.52526H4.2757ZM9.37553 4.27526H4.5257V4.77526H9.37553V4.27526ZM9.62553 9.22754V4.52526H9.12553V9.22754H9.62553ZM9.58419 9.08984L9.58365 9.08903L9.1674 9.36604L9.16794 9.36685L9.58419 9.08984ZM21.2248 4.52526V9.37483H21.7248V4.52526H21.2248ZM16.6247 4.77526H21.4748V4.27526H16.6247V4.77526ZM16.8747 9.37483V4.52526H16.3747V9.37483H16.8747ZM16.7409 9.12537L16.6258 9.12484L16.6235 9.62483L16.7385 9.62537L16.7409 9.12537ZM16.5635 9.19806L16.5629 9.1986L16.9165 9.55215L16.917 9.55161L16.5635 9.19806ZM21.4748 9.12483H16.7403V9.62483H21.4748V9.12483ZM13.2835 12.9726L16.652 9.60435L16.2984 9.25079L12.93 12.619L13.2835 12.9726ZM12.8568 8.01371V12.7958H13.3568V8.01371H12.8568ZM16.2842 4.48293L12.93 7.83693L13.2835 8.19049L16.6377 4.83649L16.2842 4.48293ZM16.7252 9.42682L16.7109 4.65896L16.2109 4.66045L16.2252 9.42831L16.7252 9.42682ZM18.1314 13.1011L21.517 9.71534L21.1634 9.36179L17.7778 12.7475L18.1314 13.1011ZM13.19 13.1743H17.9546V12.6743H13.19V13.1743ZM16.4131 9.34781L13.0132 12.7475L13.3667 13.1011L16.7666 9.70137L16.4131 9.34781ZM21.341 9.28857L16.5906 9.27459L16.5891 9.77459L21.3395 9.78857L21.341 9.28857ZM21.3395 16.21L16.6214 16.224L16.6229 16.724L21.341 16.71L21.3395 16.21ZM17.7779 13.251L21.1635 16.6368L21.5171 16.2832L18.1314 12.8975L17.7779 13.251ZM13.222 13.3243H17.9546V12.8243H13.222V13.3243ZM16.7989 16.2972L13.3988 12.8975L13.0452 13.2511L16.4454 16.6508L16.7989 16.2972ZM16.2252 16.5383L16.2109 21.3384L16.7109 21.3399L16.7252 16.5398L16.2252 16.5383ZM12.93 13.3479L16.2984 16.7159L16.6519 16.3623L13.2835 12.9943L12.93 13.3479ZM13.3568 17.9849V13.1711H12.8568V17.9849H13.3568ZM16.6377 21.1624L13.2835 17.8081L12.93 18.1617L16.2842 21.516L16.6377 21.1624ZM12.7065 13.1579V17.922H13.2065V13.1579H12.7065ZM9.70217 16.7658L13.1332 13.3346L12.7797 12.9811L9.34861 16.4122L9.70217 16.7658ZM9.7891 21.3384L9.77539 16.5883L9.27539 16.5897L9.2891 21.3398L9.7891 21.3384ZM12.7797 17.7452L9.36233 21.1623L9.71587 21.5159L13.1332 18.0987L12.7797 17.7452ZM12.7065 8.07688V12.8087H13.2065V8.07688H12.7065ZM9.36233 4.83649L12.7797 8.25366L13.1332 7.9001L9.71587 4.48293L9.36233 4.83649ZM9.77539 9.3783L9.7891 4.66043L9.2891 4.65898L9.27539 9.37684L9.77539 9.3783ZM13.1332 12.6319L9.70217 9.2008L9.34861 9.55435L12.7797 12.9855L13.1332 12.6319ZM8.04564 13.1743H12.86V12.6743H8.04564V13.1743ZM4.48322 9.71534L7.86886 13.1011L8.22242 12.7475L4.83678 9.36179L4.48322 9.71534ZM9.45965 9.27459L4.65928 9.28857L4.66073 9.78857L9.4611 9.77459L9.45965 9.27459ZM13.0368 12.7475L9.63715 9.34782L9.2836 9.70137L12.6832 13.1011L13.0368 12.7475ZM12.6512 12.8975L9.25134 16.2972L9.60489 16.6508L13.0048 13.2511L12.6512 12.8975ZM8.04564 13.3243H12.828V12.8243H8.04564V13.3243ZM4.83678 16.6368L8.22242 13.251L7.86886 12.8975L4.48322 16.2832L4.83678 16.6368ZM9.42885 16.224L4.66074 16.21L4.65927 16.71L9.42738 16.724L9.42885 16.224ZM16.6236 16.8727H21.4753V16.3727H16.6236V16.8727ZM16.8736 21.4741V16.6227H16.3736V21.4741H16.8736ZM21.4753 21.2241H16.6236V21.7241H21.4753V21.2241ZM21.2253 16.6227V21.4741H21.7253V16.6227H21.2253ZM9.37685 16.3727H4.52487V16.8727H9.37685V16.3727ZM9.62685 21.4741V16.6227H9.12685V21.4741H9.62685ZM4.52487 21.7241H9.37685V21.2241H4.52487V21.7241ZM4.27487 16.6227V21.4741H4.77487V16.6227H4.27487ZM18.3181 13.1767L21.7474 9.74754L21.3939 9.39397L17.9646 12.8231L18.3181 13.1767ZM21.7474 16.2522L18.3181 12.8231L17.9646 13.1767L21.3939 16.6058L21.7474 16.2522ZM24.8232 12.8231L21.3939 16.2522L21.7474 16.6058L25.1767 13.1767L24.8232 12.8231ZM21.3939 9.74754L24.8232 13.1767L25.1767 12.8231L21.7474 9.39397L21.3939 9.74754ZM1.17677 13.1759L4.6059 9.74699L4.25235 9.39343L0.823228 12.8224L1.17677 13.1759ZM4.6059 16.2513L1.17677 12.8224L0.823228 13.1759L4.25235 16.6049L4.6059 16.2513ZM7.68148 12.8224L4.25235 16.2513L4.6059 16.6049L8.03502 13.1759L7.68148 12.8224ZM4.25235 9.74699L7.68148 13.1759L8.03502 12.8224L4.6059 9.39343L4.25235 9.74699ZM12.8225 17.9655L9.39357 21.3943L9.74712 21.7478L13.1761 18.3191L12.8225 17.9655ZM16.6052 21.3945L13.1761 17.9655L12.8225 18.3191L16.2516 21.748L16.6052 21.3945ZM13.1762 25.1768L16.6052 21.748L16.2516 21.3945L12.8227 24.8232L13.1762 25.1768ZM9.39357 21.7478L12.8227 25.1768L13.1762 24.8232L9.74712 21.3943L9.39357 21.7478Z" fill="white"/>
<path fill-rule="evenodd" clip-rule="evenodd" d="M31 18.6762V20H41.7501V15.8682H39.4322V18.5559H35.6357V7.32378H37.1343V6H31V7.32378H32.3987V18.6762H31ZM43.3885 18.6762V20H49.423V18.6762H48.0243V7.32378H49.423V6H43.3885V7.32378H44.7872V18.6762H43.3885ZM51.0614 18.6762V20H61.8115V15.8682H59.4936V18.5559H55.6972V7.32378H57.1958V6H51.0614V7.32378H52.4601V18.6762H51.0614ZM66.3033 18.6762V20H72.6974V18.6762H71.1189V13.9628L74.8554 7.32378H75.8745V6H71.7383V7.32378H73.137L70.3596 12.5788H70.2797L67.6021 7.32378H69.0008V6H63.1263V7.32378H64.1254L67.8819 14.404V18.6762H66.3033ZM142.889 7.32378L147.125 20H149.882L154.118 7.32378H155.117V6H150.821V7.32378H152.42L150.541 13.2607L149.283 17.553H149.163L147.984 13.2607L146.165 7.32378H147.764V6H141.889V7.32378H142.889ZM156.256 18.6762V20H162.291V18.6762H160.892V7.32378H162.291V6H156.256V7.32378H157.655V18.6762H156.256ZM166.686 18.6762V20H173.72V18.6762H171.822V7.44413H174.419V9.73066H176.737V6H163.669V9.73066H165.987V7.44413H168.585V18.6762H166.686ZM177.572 18.6762V20H181.868V18.6762H180.27L181.229 15.7278H185.785L186.744 18.6762H185.145V20H191V18.6762H190.001L185.665 6H182.908L178.572 18.6762H177.572ZM181.629 14.3438L183.467 8.44699H183.547L185.425 14.3438H181.629Z" fill="#1D1D1D"/>
<path d="M78.3359 20V18.6762H79.7346V7.32378H78.3359V6H85.5493C86.3618 6 87.0612 6.08424 87.6473 6.25272C88.2334 6.41853 88.717 6.64852 89.098 6.94269C89.4763 7.23687 89.756 7.58453 89.9372 7.98567C90.1157 8.38682 90.205 8.82139 90.205 9.2894C90.205 9.77077 90.1224 10.1987 89.9572 10.5731C89.7893 10.9475 89.5655 11.2644 89.2858 11.5238C89.0061 11.7859 88.6837 12.0038 88.3187 12.1777C87.951 12.3515 87.5741 12.4785 87.1877 12.5587V12.659C87.5874 12.7125 88.0003 12.8195 88.4266 12.9799C88.8529 13.1404 89.2392 13.361 89.5855 13.6418C89.9319 13.9226 90.2156 14.2663 90.4367 14.6728C90.6552 15.0819 90.7644 15.5606 90.7644 16.1089C90.7644 17.3524 90.3648 18.3112 89.5656 18.9851C88.7663 19.6617 87.5607 20 85.9489 20H78.3359ZM82.9716 13.5014V18.5759H85.1896C85.9089 18.5759 86.4658 18.3954 86.8601 18.0344C87.2517 17.6734 87.4475 17.1652 87.4475 16.51V15.5673C87.4475 14.9121 87.2517 14.404 86.8601 14.043C86.4658 13.6819 85.9089 13.5014 85.1896 13.5014H82.9716ZM82.9716 7.42407V12.1175H84.8299C86.202 12.1175 86.888 11.4823 86.888 10.212V9.32951C86.888 8.05922 86.202 7.42407 84.8299 7.42407H82.9716ZM92.4029 20V18.6762H93.8016V7.32378H92.4029V6H103.533V9.73066H101.215V7.44413H97.0386V11.9771H99.6762V10.7736H101.155V14.6246H99.6762V13.4212H97.0386V18.5559H101.375V15.8682H103.692V20H92.4029ZM105.547 20V18.6762H106.945V7.32378H105.547V6H111.685V7.32378H110.186V18.5559H113.983V15.8682H116.301V20H105.547ZM117.935 20V18.6762H119.334V7.32378H117.935V6H124.07V7.32378H122.571V18.5559H126.368V15.8682H128.685V20H117.935ZM129.784 20V18.6762H130.783L135.119 6H137.877L142.213 18.6762H143.212V20H137.357V18.6762H138.956L137.997 15.7278H133.441L132.482 18.6762H134.08V20H129.784ZM135.679 8.44699L133.841 14.3438H137.637L135.759 8.44699H135.679Z" fill="#CE0022"/>
</svg>
