<svg width="200" height="32" viewBox="0 0 200 32" fill="none" xmlns="http://www.w3.org/2000/svg">
<path opacity="0.5" fill-rule="evenodd" clip-rule="evenodd" d="M16.8748 2.00815C16.7349 2.01975 16.3735 2.06754 16.0716 2.11434C15.7698 2.16108 15.2866 2.27302 14.9978 2.36306C14.7091 2.45305 14.2406 2.6356 13.9567 2.76861C13.6729 2.90168 13.2151 3.15714 12.9394 3.33635C12.6637 3.51551 12.2407 3.83901 11.9993 4.05522C11.7578 4.27143 11.4116 4.62455 11.23 4.83988C11.0483 5.05522 10.7989 5.38228 10.6759 5.56663C10.5529 5.75099 10.3579 6.08664 10.2427 6.31249C10.1275 6.53833 9.96095 6.91504 9.87267 7.14964L9.7121 7.57616L9.14094 7.70019C8.82681 7.76845 8.34652 7.91241 8.07371 8.02013C7.8009 8.12786 7.38199 8.33055 7.14292 8.47052C6.9038 8.61053 6.50958 8.88904 6.2669 9.08949C6.02415 9.28988 5.6647 9.65203 5.46808 9.89424C5.27145 10.1364 5.02481 10.4724 4.91997 10.6409C4.81518 10.8095 4.65326 11.1154 4.56017 11.3208C4.46703 11.5262 4.32619 11.9107 4.24707 12.175C4.16794 12.4394 4.07361 12.9386 4.03744 13.2842C3.98629 13.7728 3.98731 14.0544 4.04196 14.5498C4.08062 14.9003 4.18252 15.4237 4.26849 15.7128C4.35439 16.002 4.52689 16.4498 4.65173 16.7079C4.77664 16.9659 4.98095 17.3219 5.1058 17.499C5.23064 17.676 5.46203 17.9632 5.62005 18.1371C5.77802 18.3111 6.05326 18.577 6.23169 18.7282C6.41006 18.8794 6.72232 19.1089 6.92555 19.2382C7.12879 19.3674 7.49853 19.5613 7.74721 19.669C7.99589 19.7767 8.35195 19.9075 8.53846 19.9597C8.72497 20.0119 9.01745 20.0816 9.18841 20.1146L9.49926 20.1746L9.51412 21.9946L9.52904 25H10.8564H12.1839L12.1839 22.0343V20.2539L13.074 20.269L13.9642 20.2841L13.9791 22.0494L13.994 25H15.2649H16.5357L16.5357 22.0357V20.2567H17.44H18.3443V22.0357L18.3443 25H19.6442H20.9441L20.9441 22.0357V20.2567H21.8484H22.7527V22.0357L22.7527 25H24.0518H25.351L25.3659 21.9946L25.3807 20.1746L25.6916 20.1146C25.8626 20.0816 26.155 20.0119 26.3415 19.9597C26.528 19.9075 26.8841 19.7767 27.1328 19.669C27.3815 19.5613 27.7512 19.3674 27.9544 19.2382C28.1577 19.1089 28.4699 18.8794 28.6483 18.7282C28.8267 18.577 29.102 18.3111 29.2599 18.1371C29.418 17.9632 29.6494 17.676 29.7742 17.499C29.899 17.3219 30.1034 16.9659 30.2283 16.7079C30.3531 16.4498 30.5256 16.002 30.6115 15.7128C30.6975 15.4237 30.7994 14.9003 30.838 14.5498C30.8927 14.0544 30.8937 13.7728 30.8426 13.2842C30.8064 12.9386 30.7122 12.4385 30.6332 12.173C30.5542 11.9075 30.4089 11.5179 30.3103 11.3071C30.2118 11.0964 30.0497 10.7913 29.9503 10.6293C29.8508 10.4672 29.6085 10.1364 29.4119 9.89424C29.2153 9.65203 28.8558 9.28988 28.6131 9.08949C28.3704 8.88904 27.9762 8.61053 27.7371 8.47052C27.498 8.33055 27.0791 8.12786 26.8063 8.02013C26.5335 7.91241 26.0532 7.76845 25.7391 7.70019L25.1679 7.57616L25.0073 7.14964C24.919 6.91504 24.7525 6.53833 24.6372 6.31249C24.5221 6.08664 24.3271 5.75099 24.2041 5.56663C24.0811 5.38228 23.8317 5.05522 23.65 4.83988C23.4683 4.62455 23.1222 4.27143 22.8807 4.05522C22.6393 3.83901 22.2163 3.51551 21.9406 3.33635C21.6649 3.15714 21.2071 2.90168 20.9233 2.76861C20.6394 2.6356 20.1726 2.4536 19.8859 2.36421C19.5991 2.27483 19.1286 2.16382 18.8403 2.11762C18.5519 2.07137 18.049 2.02309 17.7226 2.01028C17.3962 1.99747 17.0147 1.99649 16.8748 2.00815Z" fill="#FF9900"/>
<path d="M16.0716 2.11434C16.3735 2.06754 16.7349 2.01975 16.8748 2.00815C17.0147 1.99649 17.3962 1.99747 17.7226 2.01028C18.049 2.02309 18.5519 2.07137 18.8403 2.11762C19.1286 2.16382 19.5991 2.27483 19.8859 2.36421C20.1726 2.4536 20.6394 2.6356 20.9233 2.76861C21.2071 2.90168 21.6649 3.15714 21.9406 3.33635C22.2163 3.51551 22.6393 3.83901 22.8807 4.05522C23.1222 4.27143 23.4684 4.62455 23.65 4.83988C23.8317 5.05522 24.0811 5.38228 24.2041 5.56663C24.3271 5.75099 24.5221 6.08664 24.6373 6.31249C24.7525 6.53833 24.919 6.91504 25.0073 7.14964L25.1679 7.57616L25.7391 7.70019C26.0532 7.76845 26.5335 7.91241 26.8063 8.02013C27.0791 8.12786 27.498 8.33055 27.7371 8.47052C27.9762 8.61053 28.3704 8.88904 28.6131 9.08949C28.8558 9.28988 29.2153 9.65203 29.4119 9.89424C29.6085 10.1364 29.8508 10.4672 29.9503 10.6293C30.0497 10.7913 30.2118 11.0964 30.3103 11.3071C30.4089 11.5179 30.5542 11.9075 30.6332 12.173C30.7122 12.4385 30.8064 12.9386 30.8426 13.2842C30.8937 13.7728 30.8927 14.0544 30.838 14.5498C30.7994 14.9003 30.6975 15.4237 30.6115 15.7128C30.5256 16.002 30.3531 16.4498 30.2283 16.7079C30.1034 16.9659 29.8991 17.3219 29.7742 17.499C29.6494 17.676 29.418 17.9632 29.26 18.1371C29.102 18.3111 28.8267 18.577 28.6483 18.7282C28.4699 18.8794 28.1577 19.1089 27.9544 19.2382C27.7512 19.3674 27.3815 19.5613 27.1328 19.669C26.8841 19.7767 26.5281 19.9075 26.3415 19.9597C26.155 20.0119 25.8626 20.0816 25.6916 20.1146L25.3807 20.1746L22.7527 20.2567H21.8484H20.9441H18.3443H17.44H16.5357L13.9642 20.2841L13.074 20.269L12.1839 20.2539L9.49926 20.1746L9.18841 20.1146C9.01745 20.0816 8.72497 20.0119 8.53846 19.9597C8.35195 19.9075 7.99589 19.7767 7.74721 19.669C7.49853 19.5613 7.12879 19.3674 6.92555 19.2382C6.72232 19.1089 6.41006 18.8794 6.23169 18.7282C6.05326 18.577 5.77802 18.3111 5.62005 18.1371C5.46203 17.9632 5.23064 17.676 5.1058 17.499C4.98095 17.3219 4.77664 16.9659 4.65173 16.7079C4.52689 16.4498 4.35439 16.002 4.26849 15.7128C4.18252 15.4237 4.08062 14.9003 4.04196 14.5498C3.98731 14.0544 3.98629 13.7728 4.03744 13.2842C4.07361 12.9386 4.16794 12.4394 4.24707 12.175C4.32619 11.9107 4.46703 11.5262 4.56017 11.3208C4.65326 11.1154 4.81518 10.8095 4.91997 10.6409C5.02481 10.4724 5.27145 10.1364 5.46808 9.89424C5.6647 9.65203 6.02415 9.28988 6.2669 9.08949C6.50958 8.88904 6.9038 8.61053 7.14292 8.47052C7.38199 8.33055 7.8009 8.12786 8.07371 8.02013C8.34652 7.91241 8.82681 7.76845 9.14094 7.70019L9.7121 7.57616L9.87267 7.14964C9.96095 6.91504 10.1275 6.53833 10.2427 6.31249C10.3579 6.08664 10.5529 5.75099 10.6759 5.56663C10.7989 5.38228 11.0483 5.05522 11.23 4.83988C11.4116 4.62455 11.7578 4.27143 11.9993 4.05522C12.2407 3.83901 12.6637 3.51551 12.9394 3.33635C13.2151 3.15714 13.6729 2.90168 13.9567 2.76861C14.2406 2.6356 14.7091 2.45305 14.9978 2.36306C15.2866 2.27302 15.7698 2.16108 16.0716 2.11434Z" fill="#FF9900"/>
<path d="M9.60001 30V28.6V26.2H17.3H25V28.6V30H17.3H9.60001Z" fill="#FF9900"/>
<path d="M40 26.7393V7.23511H46.5984C48.5259 7.23511 50.1987 7.46 51.6168 7.90979C53.0381 8.35957 54.2157 9.00187 55.1495 9.8367C56.0803 10.6715 56.7752 11.6869 57.2342 12.883C57.6902 14.0756 57.9181 15.4164 57.9181 16.9054C57.9181 18.3195 57.6918 19.628 57.239 20.8308C56.7862 22.0336 56.0944 23.0729 55.1637 23.9486C54.2361 24.8278 53.0617 25.5144 51.6404 26.0084C50.2223 26.5025 48.5495 26.7496 46.622 26.7496L40 26.7393ZM43.6506 23.32H47.4946C48.5857 23.32 49.5416 23.1683 50.3622 22.8651C51.1829 22.5618 51.8684 22.1308 52.4187 21.5719C52.9689 21.0165 53.3824 20.3436 53.6591 19.553C53.9327 18.7625 54.0694 17.88 54.0694 16.9054C54.0694 15.948 53.9327 15.0859 53.6591 14.3192C53.3824 13.5491 52.9689 12.8949 52.4187 12.3565C51.8684 11.8215 51.1829 11.4075 50.3622 11.1145C49.5416 10.8249 48.5857 10.68 47.4946 10.68H43.6506V23.32ZM61.116 26.7393V7.23511H64.7901V26.7393H61.116ZM69.4171 26.7393V7.23511H73.0677L84.2836 13.5985V7.23511H87.9342V26.7393H84.2836V17.7948L73.0677 11.4672V26.7393H69.4171ZM93.0234 26.7393V7.23511H108.347V10.7056H96.674V14.6003H107.013V17.8561H96.674V23.2842H108.593V26.7393H93.0234ZM118.068 26.7393V10.7056H111.423V7.23511H128.36V10.7056H121.719V26.7393H118.068ZM132.251 26.7393V7.23511H147.58V10.7056H135.901V14.6003H146.245V17.8561H135.901V23.2842H147.82V26.7393H132.251ZM150.777 16.8697C150.777 15.4794 151.02 14.1829 151.504 12.9801C151.988 11.7806 152.689 10.738 153.607 9.85203C154.522 8.96609 155.643 8.26927 156.97 7.76156C158.294 7.25385 159.792 7 161.465 7C162.93 7 164.276 7.16015 165.502 7.48045C166.726 7.80075 167.862 8.28972 168.913 8.94735L167.233 11.9374C166.919 11.7159 166.556 11.5166 166.144 11.3394C165.735 11.1656 165.298 11.0191 164.833 10.8998C164.367 10.7772 163.888 10.6834 163.394 10.6187C162.897 10.5506 162.408 10.5165 161.927 10.5165C160.758 10.5165 159.717 10.6732 158.805 10.9867C157.89 11.2968 157.12 11.7329 156.494 12.2952C155.868 12.8574 155.393 13.527 155.069 14.3039C154.742 15.0808 154.579 15.936 154.579 16.8697C154.579 17.834 154.747 18.7199 155.084 19.5275C155.423 20.335 155.914 21.0319 156.555 21.6179C157.193 22.204 157.976 22.6606 158.904 22.9877C159.828 23.3183 160.874 23.4835 162.041 23.4835C162.569 23.4835 163.094 23.4409 163.616 23.3557C164.138 23.274 164.642 23.1598 165.13 23.0133C165.62 22.8702 166.092 22.6964 166.545 22.4919C166.998 22.2875 167.419 22.0643 167.809 21.8224L169.493 24.8175C168.508 25.499 167.372 26.034 166.083 26.4224C164.793 26.8075 163.422 27 161.97 27C160.121 27 158.498 26.741 157.102 26.2231C155.703 25.7018 154.535 24.9862 153.598 24.0764C152.664 23.1632 151.96 22.0899 151.485 20.8564C151.013 19.6195 150.777 18.2906 150.777 16.8697ZM173.497 26.7393V7.23511H177.148V12.3258H188.34V7.23511H192V26.7393H188.34V15.7094H177.148V26.7393H173.497Z" fill="black"/>
</svg>
